<?xml version="1.0" encoding="UTF-8"?>
<svg width="203px" height="117px" viewBox="0 0 203 117" version="1.1" xmlns="http://www.w3.org/2000/svg" xmlns:xlink="http://www.w3.org/1999/xlink">
    <!-- Generator: Sketch 55.2 (78181) - https://sketchapp.com -->
    <title>Group</title>
    <desc>Created with Sketch.</desc>
    <g id="Page-1" stroke="none" stroke-width="1" fill="none" fill-rule="evenodd">
        <g id="Comic_book_explosion1" transform="translate(-463.000000, 0.000000)">
            <g id="Group" transform="translate(463.055000, 0.591000)">
                <path d="M202.732,69.029 C202.732,69.029 190.361,64.152 189.414,48.069 C188.466,31.987 190.358,25.303 190.358,25.303 C190.358,25.303 182.807,41.042 159.886,32.146 C136.966,23.25 145.2,8.736 145.2,8.736 C145.2,8.736 135.915,20.89 121.688,18.925 C107.462,16.959 103.746,2.156 103.746,2.156 C103.746,2.156 90.488,20.434 73.531,21.448 C58.493,22.347 36.63,0 36.63,0 C36.63,0 48.446,20.191 35.792,29.672 C23.138,39.153 -2.84217094e-14,34.664 -2.84217094e-14,34.664 C-2.84217094e-14,34.664 25.185,40.421 31.405,57.308 C37.625,74.196 27.078,90.805 27.078,90.805 C27.078,90.805 51.942,75.843 71.704,93.471 C91.466,111.099 93.657,115.5 93.657,115.5 C93.657,115.5 105.803,83.529 131.277,95.555 C156.751,107.579 159.712,110.48 159.712,110.48 C159.712,110.48 157.516,85.451 168.722,78.653 C179.928,71.855 202.732,69.029 202.732,69.029 Z M70.603,17.525 C84.037,19.677 94.595,6.696 94.595,6.696 C69.78,23.349 49.214,6.514 49.214,6.514 C49.214,6.514 57.17,15.374 70.603,17.525 Z M120.65,97.502 C106.639,97.39 100.385,114.618 100.385,114.618 C100.385,114.618 110.628,91.085 154.495,113.141 C154.495,113.141 134.662,97.614 120.65,97.502 Z M186.757,76.018 C185.692,76.206 184.672,76.477 183.696,76.817 C185.535,76.286 186.757,76.018 186.757,76.018 Z M166.661,87.676 C164.17,95.506 164.404,102.455 164.404,102.455 C164.404,102.455 169.271,81.855 183.696,76.817 C178.541,78.31 168.499,81.903 166.661,87.676 Z M160.116,29.101 C168.644,33.994 182.713,28.065 182.713,28.065 C156.629,31.694 148.761,13.772 148.761,13.772 C148.761,13.772 151.589,24.209 160.116,29.101 Z M10.474,43.18 C30.308,58.707 26.035,82.553 26.035,82.553 C26.035,82.553 30.336,70.28 27.729,61.006 C25.123,51.732 10.474,43.18 10.474,43.18 L10.474,43.18 Z" id="Fill-83" fill="#CF3476"></path>
                <path d="M163.533,63.836 L155.995,60.885 L156.683,60.44 L166.983,53.811 L168.445,52.869 L167.897,51.173 C167.793,50.849 165.213,43.197 155.187,40.329 C147.247,38.057 139.116,41.771 132.64,50.358 L136.922,34.604 L134.878,34.506 L122.646,33.921 L121.047,33.844 L117.437,54.333 L113.039,36.406 L111.878,36.39 L99.946,36.229 L98.427,36.209 L98.074,37.988 L93.991,58.593 L91.211,38.627 L90.982,36.975 L89.525,37.125 L79.146,38.2 L78.172,38.301 L66.591,61.56 C66.558,61.332 66.521,61.105 66.477,60.881 C65.88,57.847 64.272,55.793 62.962,54.568 C65.708,51.127 70.58,43.479 68.585,34.449 C65.888,22.243 46.403,23.411 45.574,23.466 L44.008,23.572 L43.792,25.411 L37.194,81.12 L38.588,81.472 C39.214,81.63 52.042,84.738 60.315,77.248 L61.202,77.4 L71.135,79.106 L72.513,79.343 L76.87,67.932 L80.281,67.884 L80.177,78.97 L81.424,79.258 L89.522,81.131 L89.077,83.372 L88.642,85.573 L90.511,85.669 L102.939,86.307 L104.687,86.398 L104.902,84.326 L106.233,71.422 L108.064,88.104 L109.409,88.128 L120.909,88.335 L122.309,88.36 L124.814,79.143 C125.648,81.939 127.152,84.233 129.321,85.786 C133.579,88.834 138.364,88.128 141.815,86.869 L140.604,89.298 L139.527,91.455 L141.421,92.136 L150.816,95.51 L152.295,96.04 L164.386,66.492 L165.208,64.491 L163.533,63.836 Z M148.692,58.027 L147.266,57.468 L146.5,59.14 L140.63,71.955 L142.741,72.41 L145.233,72.948 C143.384,73.756 141.324,74.149 139.933,72.911 C139.315,71.549 140.996,62.802 146.453,57.786 C148.42,55.979 150.077,55.257 151.379,55.639 C153.111,56.148 154,58.465 154.244,59.213 L154.238,60.197 L148.692,58.027 Z M52.619,62.187 C53.413,62.236 54.191,62.433 54.503,62.846 C54.57,62.936 54.775,63.207 54.569,64.143 C54.156,66.031 53,67.214 51.915,67.936 L52.619,62.187 Z M54.553,47.26 L55.41,39.963 C56.074,40.115 56.735,40.398 57.066,40.888 C57.241,41.146 57.444,41.619 57.195,42.735 C56.74,44.779 55.632,46.253 54.553,47.26 L54.553,47.26 Z" id="Fill-84" fill="#1A1919"></path>
                <path d="M166.264,61.754 L158.724,58.803 L169.714,51.729 L171.175,50.788 L170.627,49.091 C170.523,48.767 167.943,41.115 157.916,38.247 C149.977,35.975 141.845,39.69 135.369,48.276 L139.653,32.522 L137.609,32.424 L125.377,31.84 L123.777,31.763 L120.168,52.252 L115.767,34.324 L114.609,34.308 L102.676,34.148 L101.158,34.128 L96.72,56.511 L93.711,34.893 L92.257,35.044 L81.878,36.119 L80.903,36.22 L80.389,37.25 L69.321,59.479 C69.29,59.251 69.252,59.025 69.207,58.8 C68.612,55.765 67.002,53.711 65.691,52.486 C68.438,49.045 73.309,41.398 71.316,32.367 C68.619,20.161 49.132,21.329 48.304,21.385 L46.74,21.49 L46.521,23.329 L39.925,79.038 L41.318,79.391 C41.943,79.549 54.772,82.656 63.045,75.166 L73.866,77.024 L75.243,77.261 L79.599,65.849 L83.011,65.802 L82.922,75.364 L82.906,76.888 L84.155,77.177 L92.252,79.049 L91.373,83.491 L93.242,83.587 L105.67,84.227 L107.417,84.316 L107.632,82.244 L108.963,69.341 L110.794,86.022 L112.137,86.046 L123.638,86.253 L125.039,86.278 L125.479,84.662 L127.545,77.061 C128.38,79.857 129.883,82.152 132.051,83.705 C136.308,86.752 141.095,86.047 144.546,84.789 L143.334,87.216 L142.257,89.374 L144.15,90.054 L153.547,93.428 L155.024,93.959 L167.937,62.409 L166.264,61.754 Z M151.423,55.945 L149.997,55.386 L149.23,57.058 L143.36,69.873 L145.472,70.328 L147.963,70.866 C146.115,71.674 144.054,72.067 142.664,70.83 C142.045,69.468 143.726,60.72 149.184,55.705 C151.149,53.898 152.807,53.175 154.11,53.557 C155.841,54.066 156.73,56.383 156.975,57.131 L156.968,58.115 L151.423,55.945 Z M55.349,60.106 C56.144,60.154 56.922,60.351 57.232,60.764 C57.301,60.855 57.505,61.126 57.299,62.062 C56.885,63.95 55.73,65.132 54.645,65.855 L55.349,60.106 Z M57.283,45.178 L58.14,37.881 C58.803,38.034 59.464,38.316 59.797,38.806 C59.972,39.064 60.175,39.537 59.926,40.655 C59.47,42.698 58.361,44.17 57.283,45.178 L57.283,45.178 Z" id="Fill-85" fill="#1A1919"></path>
                <path d="M62.852,52.682 C62.852,52.682 71.948,43.739 69.535,32.816 C67.123,21.893 48.127,23.171 48.127,23.171 L41.731,77.165 C41.731,77.165 58.335,81.352 65.093,69.444 C71.854,57.535 62.852,52.682 62.852,52.682 Z M56.57,35.474 C56.57,35.474 62.766,35.015 61.489,40.742 C60.211,46.469 55.029,48.599 55.029,48.599 L56.57,35.474 Z M52.449,68.626 L53.761,57.927 C53.761,57.927 60.034,56.797 58.865,62.14 C57.695,67.482 52.449,68.626 52.449,68.626 Z M125.029,33.627 L120.296,60.487 L114.313,36.098 L102.38,35.937 L96.284,66.677 L92.13,36.825 L81.752,37.899 L64.24,73.071 L74.174,74.776 L78.441,63.6 L84.649,63.511 L84.543,74.944 L94.204,77.18 L93.382,81.32 L105.81,81.96 L108.827,52.751 L112.231,83.778 L123.731,83.985 L137.261,34.212 L125.029,33.627 Z M80.713,57.648 L84.805,46.928 L84.713,56.814 L80.713,57.648 Z M150.628,57.636 L145.839,68.092 L152.978,69.632 C152.978,69.632 145.482,76.027 141.353,72.184 C139.445,70.41 141.886,59.627 148.1,53.915 C156.075,46.584 158.598,56.362 158.598,56.362 L168.9,49.732 C168.9,49.732 166.612,42.66 157.248,39.981 C147.883,37.303 139.047,43.724 133.028,54.71 C127.144,65.45 126.508,77.094 132.948,81.704 C139.776,86.592 148.421,80.409 148.421,80.409 L144.696,87.868 L154.092,91.242 L165.468,63.446 L150.628,57.636 L150.628,57.636 Z" id="Fill-86" fill="#FFFFFE"></path>
                <path d="M103.287,19.972 L103.721,17.266 L101.001,17.611 L92.16,18.735 L89.347,19.093 L99.88,41.238 L103.287,19.972 Z M82.338,77.365 L82.86,75.411 L78.38,74.142 L77.617,74.599 L60.646,84.8 L64.623,86.294 L76.426,90.723 L78.545,91.519 L79.13,89.332 L82.338,77.365 Z M111.755,90.103 L109.991,79.528 L97.291,97.013 L101.36,96.978 L117.538,96.844 L118.326,92.904 L111.755,90.103 Z M181.576,65.345 L181.364,53.041 L178.814,53.743 L157.69,59.551 L178.816,67.307 L181.628,68.34 L181.576,65.345 Z M143.975,24.672 L142.644,37.456 L157.78,26.081 L144.228,22.244 L143.975,24.672 Z M41.664,31.552 L41.384,28.722 L38.788,29.879 L33.807,32.096 L31.943,32.926 L33.716,36.971 L29.119,41.196 L43.794,53.035 L41.664,31.552 L41.664,31.552 Z" id="Fill-87" fill="#1A1919"></path>
                <path d="M103.083,18.675 L103.537,15.839 L91.424,17.379 L88.476,17.753 L99.514,40.957 L103.083,18.675 Z M81.13,78.816 L81.68,76.766 L76.984,75.436 L76.184,75.917 L62.216,84.313 L58.402,86.607 L74.935,92.811 L77.156,93.646 L81.13,78.816 Z M111.958,92.163 L110.109,81.082 L96.801,99.403 L101.065,99.368 L118.016,99.227 L118.843,95.097 L111.958,92.163 Z M185.121,66.219 L184.898,53.326 L166.564,58.368 L160.091,60.148 L166.393,62.462 L182.228,68.275 L185.174,69.357 L185.121,66.219 Z M145.719,23.599 L144.326,36.996 L160.184,25.076 L145.984,21.056 L145.719,23.599 Z M38.511,30.808 L38.218,27.843 L35.497,29.056 L30.279,31.379 L28.326,32.249 L29.182,34.207 L30.181,36.487 L25.366,40.913 L27.308,42.483 L40.742,53.32 L38.511,30.808 L38.511,30.808 Z" id="Fill-88" fill="#1A1919"></path>
                <path d="M92.419,20.772 L98.898,34.393 L101.26,19.647 L92.419,20.772 Z M78.674,76.358 L65.344,84.372 L77.147,88.801 L80.354,76.834 L78.674,76.358 Z M108.773,84.699 L101.343,94.926 L117.521,94.791 L109.916,91.551 L108.773,84.699 Z M179.357,55.721 L164.412,59.832 L179.523,65.38 L179.357,55.721 Z M145.174,32.988 L153.236,26.928 L146.018,24.885 L145.174,32.988 Z M34.642,33.971 L36.185,37.49 L32.262,41.094 L41.268,48.359 L39.623,31.754 L34.642,33.971 L34.642,33.971 Z" id="Fill-89" fill="#D2DB2F"></path>
            </g>
        </g>
    </g>
</svg>