<?xml version="1.0" encoding="utf-8"?>
<!-- Generator: Adobe Illustrator 21.1.0, SVG Export Plug-In . SVG Version: 6.00 Build 0)  -->
<svg version="1.1" id="Capa_1" xmlns="http://www.w3.org/2000/svg" xmlns:xlink="http://www.w3.org/1999/xlink" x="0px" y="0px"
	 viewBox="0 0 483 492" style="enable-background:new 0 0 483 492;" xml:space="preserve">
<style type="text/css">
	.st0{fill:#CF3776;stroke:#CF3776;stroke-width:14;stroke-miterlimit:10;}
	.st1{fill:#FFFFFF;stroke:#FFFFFF;stroke-width:14;stroke-miterlimit:10;}
</style>
<title>Logo-Mia</title>
<circle class="st0" cx="240.1" cy="246.6" r="220.8"/>
<circle class="st1" cx="241.1" cy="247.3" r="155.8"/>
<polygon points="137.6,295.1 171.3,309.9 249.4,138.9 272.3,67.6 199.6,44.7 176.7,126.8 "/>
<polygon points="127.2,307.5 142.5,338.5 176.7,343.5 152,367.6 157.8,401.7 127.2,385.6 96.6,401.7 102.5,367.6 77.7,343.5 
	111.9,338.5 "/>
<polygon points="259.2,337.9 292.9,352.7 370.9,181.7 393.8,110.3 321.1,87.5 298.2,169.6 "/>
<polygon points="248.8,350.3 264.1,381.3 298.3,386.3 273.5,410.4 279.4,444.4 248.8,428.4 218.2,444.4 224,410.4 199.3,386.3 
	233.5,381.3 "/>
</svg>
