<?xml version="1.0" encoding="utf-8"?>
<!-- Generator: Adobe Illustrator 21.1.0, SVG Export Plug-In . SVG Version: 6.00 Build 0)  -->
<svg version="1.1" id="Capa_1" xmlns="http://www.w3.org/2000/svg" xmlns:xlink="http://www.w3.org/1999/xlink" x="0px" y="0px"
	 viewBox="0 0 528 1061.4" style="enable-background:new 0 0 528 1061.4;" xml:space="preserve">
<style type="text/css">
	.st0{fill:#CF3776;stroke:#E63226;stroke-width:0.5;}
	.st1{fill:#CF3776;stroke:#E73429;stroke-width:0.5;}
	.st2{fill:#EAE5DF;stroke:#EAE5DF;stroke-width:0.5;}
	.st3{fill:#FDFDFC;stroke:#FDFDFC;stroke-width:0.5;}
	.st4{fill:#CF3776;stroke:#CF3776;stroke-width:0.5;}
	.st5{fill:#FDFDFD;stroke:#FDFDFD;stroke-width:0.5;}
	.st6{fill:#E8E3DD;stroke:#E8E3DD;stroke-width:0.5;}
	.st7{fill:#DEC24F;stroke:#DEC24F;stroke-width:0.5;}
	.st8{stroke:#D8BC4C;stroke-width:0.5;}
	.st9{fill:#DFC451;stroke:#DFC451;stroke-width:0.5;}
	.st10{fill:#C0A03C;stroke:#C0A03C;stroke-width:0.5;}
	.st11{fill:#CF3776;stroke:#E53829;stroke-width:0.5;}
	.st12{fill:#D0B243;stroke:#D0B243;stroke-width:0.5;}
	.st13{fill:#DDC255;stroke:#DDC255;stroke-width:0.5;}
	.st14{fill:#DABF4C;stroke:#DABF4C;stroke-width:0.5;}
	.st15{fill:#C4BFB9;stroke:#C4BFB9;stroke-width:0.5;}
	.st16{stroke:#BD9C3F;stroke-width:0.5;}
	.st17{fill:#D2B54C;stroke:#D2B54C;stroke-width:0.5;}
	.st18{fill:#D6B94A;stroke:#D6B94A;stroke-width:0.5;}
	.st19{fill:#CF3776;stroke:#CF3776;stroke-width:14;stroke-miterlimit:10;}
	.st20{fill:#FFFFFF;stroke:#FFFFFF;stroke-width:14;stroke-miterlimit:10;}
	.st21{stroke:#000000;stroke-width:0.5;}
	.st22{fill:#CF3776;}
</style>
<polygon class="st22" points="313,8.6 383,8.6 232,503.5 204.1,494.8 198.9,416 "/>
<path class="st21" d="M382.3,8.6c0,0,66-1.7,66,1.3S285.9,506.3,285.9,506.3l-54.3-2.9L382.3,8.6z"/>
<polygon class="st22" points="447.2,9.3 518.2,9.3 410.2,360.3 299.3,505.7 286,506.8 "/>
<polygon class="st22" points="271,176.6 234.3,295.5 166.8,9.6 232.3,9.6 "/>
<polygon class="st22" points="204.4,417.9 209.4,489.9 203.9,494.7 153.1,412.7 40.1,9.6 101.3,9.6 "/>
<polygon class="st21" points="206.4,426.1 206.1,389.7 234.4,295.4 167.6,9.8 101.5,9.8 "/>
<polygon points="211.7,639.5 295,638.9 275.2,607.4 274.9,606.9 274.7,606.5 267.1,603.5 237.2,603.4 229,608.2 "/>
<polyline points="244.3,603.5 262.3,603.5 262.3,570.9 262.3,565 262.5,552.4 262.8,545.5 241,545.9 241.6,551.5 243.3,606.9 "/>
<path d="M199,487l8.2-2.8l3,14c0,0-1.8,47,29.5,52.2c31.3,5.2,43.5-11.5,43.5-11.5s15.2-26.2,16.1-33.2c1.3-10,8.6-11.3,8.6-11.3
	s0.5,58.3-42.5,70c-43,11.7-63.2-34-63.2-34L199,487z"/>
<g>
	<circle class="st19" cx="249.4" cy="838.4" r="197.2"/>
	<circle class="st20" cx="250.3" cy="839" r="139.2"/>
	<polygon points="157.9,881.7 188,894.9 257.7,742.2 278.2,678.5 213.2,658 192.8,731.3 	"/>
	<polygon points="148.6,892.8 162.2,920.5 192.8,924.9 170.7,946.4 175.9,976.9 148.6,962.5 121.2,976.9 126.5,946.4 104.4,924.9 
		134.9,920.5 	"/>
	<polygon points="266.5,919.9 296.6,933.1 366.3,780.4 386.7,716.6 321.8,696.2 301.3,769.6 	"/>
	<polygon points="257.2,931 270.9,958.7 301.4,963.2 279.3,984.7 284.5,1015.1 257.2,1000.8 229.9,1015.1 235,984.7 213,963.2 
		243.5,958.7 	"/>
</g>
</svg>
