<?xml version="1.0" encoding="UTF-8"?>
<svg width="728px" height="782px" viewBox="0 0 728 782" version="1.1" xmlns="http://www.w3.org/2000/svg" xmlns:xlink="http://www.w3.org/1999/xlink">
    <!-- Generator: Sketch 55.2 (78181) - https://sketchapp.com -->
    <title>signal</title>
    <desc>Created with Sketch.</desc>
    <g id="Page-1" stroke="none" stroke-width="1" fill="none" fill-rule="evenodd">
        <g id="signal">
            <path d="M32.8007237,219.633211 C12.3748164,196.339882 0,165.859655 0,132.5 C0,59.3222707 59.5461283,0 133,0 C172.091135,0 207.243289,16.8013793 231.57753,43.5510665 L240.540039,54.8798828 L620,590.473935 L569.739256,648 L47,232.667969 L32.8007237,219.633211 Z" id="Combined-Shape" fill-opacity="0.123169799" fill="#6D7278" fill-rule="nonzero"></path>
            <g id="Logo-Mia" transform="translate(31.000000, 29.000000)">
                <ellipse id="Oval" fill="#FFFFFF" cx="100.5" cy="105" rx="91.5" ry="88"></ellipse>
                <circle id="Oval" stroke="#CF3776" stroke-width="36" cx="104" cy="104" r="104"></circle>
                <polygon id="Path" fill="#000000" fill-rule="nonzero" points="48 131.242836 65.7631774 139 106.929473 49.3733032 119 12.0026395 80.6800297 0 68.6095026 43.0312971"></polygon>
                <polygon id="Path" fill="#000000" fill-rule="nonzero" points="44 138 52.0363636 154.125265 70 156.726115 57.0262626 169.262208 60.0727273 187 44 178.625265 27.9272727 187 31.0262626 169.262208 18 156.726115 35.9636364 154.125265"></polygon>
                <polygon id="Path" fill="#000000" fill-rule="nonzero" points="112 153.242836 129.776374 161 170.920505 71.3733032 183 33.9502262 144.65156 22 132.572065 65.0312971"></polygon>
                <polygon id="Path" fill="#000000" fill-rule="nonzero" points="106 160 114.036364 176.142401 132 178.746015 118.973737 191.29543 122.072727 209 106 200.668438 89.9272727 209 92.9737371 191.29543 80 178.746015 97.9636359 176.142401"></polygon>
            </g>
            <path d="M565.494141,674.622619 L588.996094,696.755431 L588.996094,731.940978 L622.066406,764.024963 L673.527344,764.024963 L711.722656,728.761291 C733.346354,697.558166 733.346354,672.538635 711.722656,653.702697 C690.098958,634.86676 671.518229,614.489155 655.980469,592.569885 C638.700521,576.690978 619.299479,575.856343 597.777344,590.065978 C576.255208,604.275614 562.66276,625.487853 557,653.702697 L565.494141,674.622619 Z" id="Path-4" fill="#000000" fill-rule="nonzero"></path>
            <polygon id="Path-5" fill="#000000" fill-rule="nonzero" points="620 763.024963 594.390625 781.195312 700.539062 781.195312 673.527344 763.024963"></polygon>
        </g>
    </g>
</svg>